<?xml version="1.0" encoding="utf-8"?>
<!-- Generator: Adobe Illustrator 15.0.0, SVG Export Plug-In . SVG Version: 6.00 Build 0)  -->
<!DOCTYPE svg PUBLIC "-//W3C//DTD SVG 1.1//EN" "http://www.w3.org/Graphics/SVG/1.1/DTD/svg11.dtd">
<svg version="1.1" id="Layer_1" xmlns:svgjs="http://svgjs.com/svgjs"
	 xmlns="http://www.w3.org/2000/svg" xmlns:xlink="http://www.w3.org/1999/xlink" x="0px" y="0px" width="512px" height="512px"
	 viewBox="0 0 512 512" enable-background="new 0 0 512 512" xml:space="preserve">
<g>
	<g>
		<g id="Menu_1_">
			<path fill="#6A747C" d="M511.999,144c0-8.831-7.167-16-16-16H16c-8.831,0-16,7.167-16,16c0,8.831,7.168,16,16,16h479.999
				C504.83,160,511.999,152.831,511.999,144z"/>
			<path fill="#6A747C" d="M0,256c0,8.831,7.168,16,16,16h479.999c8.831,0,16-7.169,16-16s-7.167-16-16-16H16
				C7.168,240,0,247.169,0,256z"/>
			<path fill="#6A747C" d="M0,368c0,8.83,7.168,16,16,16h319.999c8.831,0,16-7.168,16-16c0-8.831-7.167-16-16-16H16
				C7.168,352-0.001,359.168,0,368z"/>
		</g>
	</g>
</g>
</svg>
